kopru_tumbacak
version=1
nRows=18
nColumns=53
inDegrees=yes
endheader
time	sacrum_pitch	sacrum_roll	sacrum_yaw	sacrum_x	sacrum_y	sacrum_z	sacroiliac_flx	hip_flx	hip_add	hip_int	knee_flx	ankle_flx	ankle_add	ankle_int	BFa.activation	BFp.activation	CF.activation	STp.activation	STa.activation	SM.activation	QF.activation	TFL.activation	GMa.activation	GMe.activation	GMi.activation	Pir.activation	GP.activation	GA.activation	AL.activation	AM.activation	AB.activation	Pec.activation	IP.activation	OE.activation	OI.activation	GS.activation	GI.activation	RF.activation	VL.activation	VI.activation	VM.activation	MG.activation	LG.activation	Pla.activation	Sol.activation	TA.activation	EDL.activation	TP.activation	FDL.activation	FHL.activation	Per.activation	Pop.activation
1.500000	20.633716	0.000000	0.000000	0.000000	0.050000	0.000000	3.700000	-8.738228	-10.000000	0.000000	-91.500000	-33.500000	-5.000000	0.000000	0.000000	0.222829	1.000000	0.217563	0.224174	1.000000	1.000000	0.955572	0.955553	0.955567	0.000000	0.000000	0.311981	0.220216	1.000000	1.000000	1.000000	0.000000	0.955569	0.000000	0.000000	1.000000	1.000000	0.959292	1.000000	1.000000	1.000000	0.247952	0.248205	0.276567	0.669273	0.590071	0.953931	0.278421	0.197784	0.197323	0.953930	0.180027
1.504950	20.633716	0.000000	0.000000	0.000000	0.050000	0.000000	3.700000	-8.813332	-10.000000	0.000000	-91.463736	-33.705078	-5.000000	0.000000	0.000000	0.201796	1.000000	0.197027	0.203014	1.000000	1.000000	1.000000	1.000000	1.000000	0.000000	0.000000	0.282532	0.199429	1.000000	1.000000	1.000000	0.000000	1.000000	0.000000	0.000000	1.000000	1.000000	1.000000	1.000000	1.000000	1.000000	0.224547	0.224777	0.250462	0.606099	0.735058	1.000000	0.252140	0.179115	0.178697	1.000000	0.163034
1.509900	20.633716	0.000000	0.000000	0.000000	0.050000	0.000000	3.700000	-8.893500	-10.000000	0.000000	-91.359680	-33.500000	-5.000000	0.000000	0.000000	0.182748	1.000000	0.178429	0.183851	1.000000	1.000000	1.000000	1.000000	1.000000	0.000000	0.000000	0.255863	0.180605	1.000000	1.000000	1.000000	0.000000	1.000000	0.000000	0.000000	1.000000	1.000000	1.000000	1.000000	1.000000	1.000000	0.203351	0.203560	0.226820	0.548888	0.665674	1.000000	0.228340	0.162208	0.161829	1.000000	0.147644
1.514850	20.633716	0.000000	0.000000	0.000000	0.050000	0.000000	3.700000	-8.718731	-10.000000	0.000000	-91.500000	-33.658498	-5.000000	0.000000	0.000000	0.165498	1.000000	0.161587	0.166497	1.000000	1.000000	1.000000	1.000000	1.000000	0.000000	0.000000	0.231712	0.163557	1.000000	1.000000	1.000000	0.000000	1.000000	0.000000	0.000000	1.000000	1.000000	1.000000	1.000000	1.000000	1.000000	0.184157	0.184345	0.205410	0.497077	0.799939	1.000000	0.206786	0.146897	0.146554	1.000000	0.133708
1.519800	20.633716	0.000000	0.000000	0.000000	0.050000	0.000000	3.700000	-8.583727	-10.000000	0.000000	-91.248523	-33.500000	-5.000000	0.000000	0.000000	0.149876	1.000000	0.146334	0.150781	1.000000	1.000000	1.000000	1.000000	1.000000	0.000000	0.000000	0.209840	0.148119	1.000000	1.000000	1.000000	0.000000	1.000000	0.000000	0.000000	1.000000	1.000000	1.000000	1.000000	1.000000	1.000000	0.166774	0.166944	0.186021	0.450157	0.724431	1.000000	0.187267	0.133031	0.132721	1.000000	0.121087
1.524750	20.633716	0.000000	0.000000	0.000000	0.050000	0.000000	3.700000	-8.500000	-10.000000	0.000000	-91.500000	-33.686916	-5.000000	0.000000	0.000000	0.135729	1.000000	0.132522	0.136549	1.000000	1.000000	1.000000	1.000000	1.000000	0.000000	0.000000	0.190033	0.134137	1.000000	1.000000	1.000000	0.000000	1.000000	0.000000	0.000000	1.000000	1.000000	1.000000	1.000000	1.000000	1.000000	0.151032	0.151186	0.168462	0.407666	0.850212	1.000000	0.169591	0.120474	0.120193	1.000000	0.109657
1.529700	20.633716	0.000000	0.000000	0.000000	0.050000	0.000000	3.700000	-8.789016	-10.000000	0.000000	-91.467158	-33.660009	-5.000000	0.000000	0.000000	0.122917	0.955880	0.120013	0.123659	0.953793	0.953811	1.000000	1.000000	1.000000	0.000000	0.000000	0.172095	0.121476	0.953844	0.953844	0.953838	0.000000	1.000000	0.000000	0.000000	0.953113	0.953826	1.000000	0.954322	0.954322	0.954322	0.136775	0.136915	0.152561	0.369185	0.769958	1.000000	0.153583	0.109102	0.108848	1.000000	0.099307
1.534650	20.633716	0.000000	0.000000	0.000000	0.050000	0.000000	3.700000	-8.573865	-10.000000	0.000000	-91.500000	-33.500000	-5.000000	0.000000	0.000000	0.111315	0.865653	0.108684	0.111987	0.863762	0.863778	1.000000	1.000000	1.000000	0.000000	0.000000	0.155851	0.110010	0.863809	0.863809	0.863803	0.000000	1.000000	0.000000	0.000000	0.863147	0.863792	1.000000	0.864241	0.864241	0.864241	0.123865	0.123992	0.138160	0.334337	0.887972	1.000000	0.139086	0.098804	0.098573	1.000000	0.089933
1.539600	20.633716	0.000000	0.000000	0.000000	0.050000	0.000000	3.700000	-8.500000	-10.000000	0.000000	-91.221833	-33.647139	-5.000000	0.000000	0.000000	0.100808	0.783942	0.098425	0.101416	0.782230	0.782245	1.000000	1.000000	1.000000	0.000000	0.000000	0.141140	0.099625	0.782272	0.782272	0.782267	0.000000	1.000000	0.000000	0.000000	0.781672	0.782257	1.000000	0.782664	0.782664	0.782664	0.112173	0.112288	0.125119	0.302778	1.000000	1.000000	0.125957	0.089477	0.089269	1.000000	0.081444
1.544550	20.633716	0.000000	0.000000	0.000000	0.050000	0.000000	3.700000	-8.758365	-10.000000	0.000000	-91.471560	-33.883015	-5.000000	0.000000	0.000000	0.091292	0.709944	0.089135	0.091843	0.708394	0.708407	1.000000	1.000000	1.000000	0.000000	0.000000	0.127817	0.090222	0.708432	0.708432	0.708427	0.000000	1.000000	0.000000	0.000000	0.707889	0.708418	1.000000	0.708787	0.708787	0.708787	0.101585	0.101689	0.113309	0.274199	0.914972	1.000000	0.114068	0.081031	0.080842	1.000000	0.384833
1.549500	20.633716	0.000000	0.000000	0.000000	0.050000	0.000000	3.700000	-8.500000	-10.000000	0.000000	-91.074505	-33.959206	-5.000000	0.000000	0.000000	0.082675	0.642931	0.080721	0.083174	0.641527	0.641539	1.000000	1.000000	1.000000	0.000000	0.000000	0.115752	0.081705	0.641562	0.641562	0.641558	0.000000	1.000000	0.000000	0.000000	0.641070	0.641549	1.000000	0.641883	0.641883	0.641883	0.091996	0.092090	0.102613	0.248316	1.000000	1.000000	0.103301	0.073383	0.073212	1.000000	0.348508
1.554450	20.633716	0.000000	0.000000	0.000000	0.050000	0.000000	3.700000	-8.528432	-10.000000	0.000000	-91.419105	-33.736776	-5.000000	0.000000	0.000000	0.380390	0.582244	0.375879	0.380842	0.580972	0.580983	1.000000	1.000000	1.000000	0.000000	0.000000	0.104826	0.378596	0.581003	0.581003	0.581000	0.000000	1.000000	0.000000	0.000000	0.580558	0.580992	1.000000	0.581294	0.581294	0.581294	0.083312	0.083398	0.092927	0.224877	0.933230	1.000000	0.093550	0.066456	0.066301	1.000000	0.315611
1.559400	20.633716	0.000000	0.000000	0.000000	0.050000	0.000000	3.700000	-8.544463	-10.000000	0.000000	-91.477119	-33.615126	-5.000000	0.000000	0.000000	0.344484	0.527284	0.340399	0.344894	0.526133	0.526143	1.000000	1.000000	1.000000	0.000000	0.000000	0.094932	0.342859	0.526161	0.526161	0.526158	0.000000	1.000000	0.000000	0.000000	0.525758	0.526151	1.000000	0.526425	0.526425	0.526425	0.075448	0.075526	0.084156	0.203651	1.000000	1.000000	0.084720	0.060183	0.060043	1.000000	0.285820
1.564350	20.633716	0.000000	0.000000	0.000000	0.050000	0.000000	3.700000	-8.987901	-10.000000	0.000000	-91.203461	-33.743191	-5.000000	0.000000	0.000000	0.311968	0.477513	0.308268	0.312339	0.476470	0.476479	1.000000	1.000000	1.000000	0.000000	0.000000	0.390573	0.310496	0.476496	0.476496	0.476493	0.000000	1.000000	0.000000	0.000000	0.476130	0.476486	1.000000	0.476734	0.476734	0.476734	0.068327	0.068397	0.076212	0.184428	0.944936	1.000000	0.076723	0.054502	0.054375	1.000000	0.258841
1.569300	20.633716	0.000000	0.000000	0.000000	0.050000	0.000000	3.700000	-8.623732	-10.000000	0.000000	-91.348021	-33.305690	-5.000000	0.000000	0.000000	0.282520	0.432439	0.279170	0.282856	0.431495	0.431503	1.000000	1.000000	1.000000	0.000000	0.000000	0.353706	0.281188	0.431518	0.431518	0.431516	0.000000	1.000000	0.000000	0.000000	0.431187	0.431510	1.000000	0.431734	0.431734	0.431734	0.061877	0.061940	0.069018	0.167019	1.000000	1.000000	0.069481	0.049358	0.049243	1.000000	0.234408
1.574250	20.633716	0.000000	0.000000	0.000000	0.050000	0.000000	3.700000	-8.758841	-10.000000	0.000000	-91.151731	-32.973087	-5.000000	0.000000	0.000000	0.255853	0.391621	0.252819	0.256157	0.390765	0.390773	1.000000	1.000000	1.000000	0.000000	0.000000	0.320319	0.254646	0.390786	0.390786	0.390784	0.000000	1.000000	0.000000	0.000000	0.390487	0.390779	1.000000	0.390982	0.390982	0.390982	0.056036	0.056094	0.062504	0.151254	0.951329	1.000000	0.062922	0.044699	0.044594	1.000000	0.212282
1.579200	20.633716	0.000000	0.000000	0.000000	0.050000	0.000000	3.700000	-8.525742	-10.000000	0.000000	-91.484156	-31.924288	-5.000000	0.000000	0.000000	0.231702	0.354655	0.228955	0.231978	0.353880	0.353887	1.000000	1.000000	1.000000	0.000000	0.000000	0.290084	0.230609	0.353899	0.353899	0.353897	0.000000	1.000000	0.000000	0.000000	0.353628	0.353892	1.000000	0.354076	0.354076	0.354076	0.050747	0.050799	0.056604	0.136977	1.000000	1.000000	0.056983	0.040480	0.040385	1.000000	0.192244
1.584150	20.633716	0.000000	0.000000	0.000000	0.050000	0.000000	3.700000	-8.956447	-10.000000	0.000000	-91.343810	-32.014880	-5.000000	0.000000	0.000000	0.209831	0.321178	0.207343	0.210081	0.320477	0.320483	1.000000	1.000000	1.000000	0.000000	0.000000	0.262702	0.208842	0.320494	0.320494	0.320492	0.000000	1.000000	0.000000	0.000000	0.320248	0.320488	1.000000	0.320654	0.320654	0.320654	0.045957	0.046004	0.051261	0.124047	0.953421	1.000000	0.051604	0.036659	0.036573	1.000000	0.174098
